<?xml version="1.0" encoding="utf-8"?>
<!-- Generator: Adobe Illustrator 16.0.4, SVG Export Plug-In . SVG Version: 6.00 Build 0)  -->
<!DOCTYPE svg PUBLIC "-//W3C//DTD SVG 1.1//EN" "http://www.w3.org/Graphics/SVG/1.1/DTD/svg11.dtd">
<svg version="1.1" id="Ebene_1" xmlns="http://www.w3.org/2000/svg" xmlns:xlink="http://www.w3.org/1999/xlink" x="0px" y="0px"
	 width="260px" height="70px" viewBox="0 0 260 70" enable-background="new 0 0 260 70" xml:space="preserve">
<g id="Ebene_1_1_" display="none">
	
		<image display="inline" overflow="visible" enable-background="new    " width="260" height="70" xlink:href="ABB084C7BDDB15D.png"  transform="matrix(0.9999 0 0 0.9999 -9.765625e-04 -0.2861)">
	</image>
</g>
<g id="Ebene_2">
	<g enable-background="new    ">
		<path fill="#FFFFFF" d="M22.661,58.024c-0.61-1.77-1.882-5.188-3.814-10.253L8.471,22.107c-1.099-2.726-1.78-4.303-2.044-4.73
			c-0.183-0.264-0.438-0.458-0.763-0.58c-0.448-0.203-1.567-0.366-3.357-0.488v-1.953c3.682,0.163,6.398,0.244,8.148,0.244
			c1.648,0,4.445-0.081,8.392-0.244v2.167c-2.482,0.041-3.921,0.091-4.318,0.152c-0.397,0.061-0.671,0.178-0.824,0.351
			c-0.152,0.173-0.229,0.372-0.229,0.595c0,0.224,0.142,0.753,0.427,1.587c0.875,2.706,1.638,4.882,2.289,6.53l9.551,24.108
			l7.965-19.988c1.16-2.868,2.268-5.991,3.326-9.369c0.447-1.444,0.671-2.339,0.671-2.685c0-0.488-0.265-0.813-0.793-0.977
			c-0.407-0.142-1.974-0.315-4.699-0.519v-1.953c3.071,0.122,5.381,0.183,6.927,0.183c1.586,0,3.773-0.061,6.561-0.183v1.953
			c-1.546,0.061-2.472,0.163-2.777,0.305c-0.305,0.143-0.59,0.427-0.854,0.854c-0.183,0.305-0.936,1.953-2.258,4.944L30.29,45.849
			l-2.35,6.012c-0.488,1.201-0.885,2.238-1.19,3.113s-0.641,1.892-1.007,3.051H22.661z"/>
		<path fill="#FFFFFF" d="M48.294,36.328c0-3.215,0.483-6.185,1.45-8.911c0.966-2.726,2.568-5.177,4.806-7.354
			c2.238-2.176,4.771-3.819,7.599-4.928c2.828-1.108,6.062-1.663,9.704-1.663c3.357,0,6.409,0.473,9.155,1.419
			c2.747,0.946,5,2.197,6.759,3.753c1.76,1.557,3.148,3.261,4.166,5.111c0.773,1.384,1.389,3.012,1.846,4.883
			c0.458,1.872,0.687,3.876,0.687,6.012c0,6.856-2.304,12.562-6.912,17.12c-4.608,4.557-10.421,6.835-17.44,6.835
			c-3.194,0-6.175-0.519-8.941-1.556c-2.767-1.038-5.106-2.579-7.019-4.624c-1.913-2.044-3.367-4.526-4.364-7.445
			C48.793,42.061,48.294,39.177,48.294,36.328z M54.642,33.795c0,1.934,0.193,3.896,0.58,5.89c0.386,1.994,0.875,3.713,1.465,5.157
			c0.977,2.441,2.253,4.491,3.83,6.149s3.336,2.879,5.28,3.662c1.942,0.783,4.094,1.175,6.454,1.175
			c3.275,0,6.123-0.799,8.544-2.396c2.421-1.598,4.227-3.846,5.417-6.744c1.19-2.899,1.785-6.241,1.785-10.025
			c0-3.234-0.427-6.215-1.282-8.94c-0.529-1.668-1.231-3.179-2.105-4.532c-0.875-1.353-1.918-2.533-3.128-3.54
			c-1.21-1.007-2.782-1.856-4.715-2.548c-1.933-0.691-4.018-1.038-6.256-1.038c-3.234,0-6.073,0.723-8.514,2.167
			c-2.441,1.444-4.278,3.535-5.508,6.271C55.257,27.239,54.642,30.337,54.642,33.795z"/>
		<path fill="#FFFFFF" d="M99.44,24.457h-1.892c-0.021-4.862-0.122-8.229-0.305-10.101c2.217,0.082,5.696,0.183,10.437,0.305
			c3.845,0.082,6.409,0.122,7.69,0.122c1.383,0,4.587-0.061,9.612-0.183c3.642-0.081,6.296-0.163,7.965-0.244
			c-0.244,2.279-0.407,5.646-0.488,10.101h-1.953l-0.245-2.93c-0.163-1.77-0.274-2.777-0.335-3.021s-0.148-0.417-0.259-0.519
			c-0.112-0.102-0.28-0.183-0.504-0.244c-0.285-0.061-1.302-0.142-3.051-0.244c-1.75-0.102-3.133-0.153-4.15-0.153h-3.723
			c-0.204,1.953-0.305,4.588-0.305,7.903v17.853c0,2.767,0.031,5.462,0.092,8.087c0.061,1.933,0.208,3.082,0.442,3.448
			s0.61,0.636,1.129,0.809c0.519,0.173,1.988,0.28,4.409,0.32v1.953c-3.642-0.162-6.377-0.244-8.208-0.244
			c-0.793,0-3.967,0.082-9.521,0.244v-1.953c2.42-0.04,3.896-0.147,4.425-0.32c0.529-0.173,0.885-0.412,1.068-0.717
			c0.264-0.407,0.427-1.394,0.488-2.96c0-0.428,0.041-3.316,0.122-8.667V25.312c0-0.854-0.021-1.79-0.061-2.808l-0.183-5.157h-4.547
			c-2.625,0-4.71,0.102-6.256,0.305c-0.488,0.061-0.804,0.194-0.946,0.397c-0.224,0.346-0.427,1.455-0.61,3.326L99.44,24.457z"/>
		<path fill="#FFFFFF" d="M136.396,57.72v-1.923c2.136-0.02,3.539-0.183,4.211-0.488c0.284-0.122,0.488-0.314,0.61-0.579
			c0.203-0.407,0.346-1.476,0.427-3.204c0.122-2.686,0.184-5.005,0.184-6.958V28.974c0-2.767-0.03-5.473-0.092-8.118
			c-0.061-1.932-0.209-3.077-0.442-3.433c-0.234-0.355-0.61-0.62-1.129-0.793s-1.989-0.28-4.41-0.321v-1.953l8.697,0.183
			l9.216-0.152c4.415-0.061,7.619-0.092,9.613-0.092c2.014,0,3.916,0.112,5.706,0.336c-0.325,1.16-0.549,2.167-0.671,3.021
			c-0.041,0.183-0.225,2.299-0.55,6.347h-1.922c0.02-2.075-0.112-3.967-0.397-5.676c-1.119-0.468-2.35-0.783-3.692-0.946
			c-2.278-0.285-4.558-0.427-6.835-0.427c-0.488,0-1.577,0.041-3.266,0.122c-1.688,0.082-2.899,0.152-3.632,0.213
			c-0.081,2.258-0.143,4.375-0.183,6.347l-0.122,10.314c2.38,0.122,4.566,0.184,6.561,0.184c2.421,0,4.486-0.111,6.195-0.336
			c0.65-0.081,1.067-0.244,1.251-0.488c0.183-0.244,0.346-1.078,0.488-2.502l0.183-2.137h1.831v0.58l-0.152,6.348l0.152,7.11h-2.136
			l-0.092-2.075c-0.041-1.506-0.178-2.441-0.412-2.808c-0.233-0.366-0.676-0.62-1.327-0.763c-1.159-0.244-3.408-0.366-6.744-0.366
			c-1.363,0-3.296,0.051-5.798,0.152c-0.103,2.034-0.152,5.056-0.152,9.063c0,3.764,0.05,6.622,0.152,8.575
			c2.93,0.224,6.215,0.335,9.856,0.335c2.584,0,4.425-0.081,5.523-0.244c1.099-0.162,2.116-0.437,3.052-0.823
			c0.244-0.631,0.488-1.485,0.732-2.563c0.447-1.811,0.742-3.174,0.885-4.09h2.015c-0.529,4.11-0.794,7.518-0.794,10.224
			c-1.75,0.265-3.875,0.396-6.378,0.396l-18.218-0.244C144.126,57.476,141.461,57.558,136.396,57.72z"/>
	</g>
	<g enable-background="new    ">
		<path fill="#FFFFFF" d="M175.655,54.47c0-2.312,1.562-3.938,3.75-3.938s3.688,1.625,3.688,3.938c0,2.25-1.438,3.938-3.75,3.938
			C177.155,58.407,175.655,56.72,175.655,54.47z"/>
	</g>
	<g enable-background="new    ">
		<path fill="#FFFFFF" d="M213.951,28.24c2.551,0.075,3.9,4.051,2.926,7.351c3.601-3.525,8.627-7.051,11.102-6.976
			c2.701,0.075,3.301,4.501,1.801,8.251c-1.351,3.376-5.025,8.326-6.901,12.077c-2.101,4.275-1.05,7.727,1.65,7.651
			c3.075-0.075,6.451-5.026,9.376-10.277c0.375-0.675,0.976-0.675,1.351-0.149s0.149,3-0.675,4.726
			c-2.101,4.275-6.901,8.026-11.252,8.026c-6.526,0-8.927-5.176-6.151-11.327c2.776-6.226,9.452-14.627,8.327-15.002
			c-0.601-0.226-3.15,0.6-8.027,5.476c-6.226,6.227-9.901,13.428-13.052,20.479c-0.45,0.9-1.05,1.125-1.726,0.375
			c-1.275-1.125-2.325-4.051-0.149-9.451c2.476-6.227,10.577-16.578,9.076-17.104c-0.899-0.375-4.575,1.65-9.376,6.901
			c-4.426,4.801-8.027,11.777-11.027,18.828c-0.3,0.675-0.75,0.976-1.426,0.375c-1.649-1.425-2.024-3.9-0.75-7.727
			c1.576-4.726,7.052-15.302,11.777-22.354c0.525-0.825,1.125-0.75,1.575,0c1.275,2.101,1.05,5.026-0.075,8.026
			C205.625,32.591,211.251,28.165,213.951,28.24z"/>
		<path fill="#FFFFFF" d="M243.127,56.744c6.226,0.301,11.701-5.7,14.928-10.651c0.375-0.6,0.975-0.6,1.275,0.075
			c0.299,0.6,0.074,2.7-1.275,4.65c-3.15,4.576-8.927,8.026-14.703,8.102c-9.526,0.15-12.826-9.227-7.951-18.903
			c4.876-9.677,12.527-13.577,16.277-11.401c1.876,1.125,3.227,2.25,4.426,3.9c1.351,1.8,0.75,6.376-2.4,10.202
			c-3.676,4.5-8.701,6.45-13.952,2.175C237.351,51.794,239.151,56.52,243.127,56.744z M249.353,39.492
			c2.4-3.151,4.051-7.052,3.001-7.877c-1.576-1.275-7.802,3.226-11.327,10.352c-0.226,0.45-0.45,0.9-0.601,1.275
			C244.102,45.567,247.178,42.342,249.353,39.492z"/>
	</g>
</g>
</svg>
